<svg width="24" height="24" viewBox="0 0 24 24" fill="none" xmlns="http://www.w3.org/2000/svg">
<path d="M7.5 19.5C7.5 18.5344 7.82853 17.5576 8.63092 17.0204C9.59321 16.3761 10.7524 16 12 16C13.2476 16 14.4068 16.3761 15.3691 17.0204C16.1715 17.5576 16.5 18.5344 16.5 19.5" stroke="#0000FF" stroke-width="1.3" stroke-linecap="round" stroke-linejoin="round"/>
<path d="M12 13.5C13.3807 13.5 14.5 12.3807 14.5 11C14.5 9.61929 13.3807 8.5 12 8.5C10.6193 8.5 9.5 9.61929 9.5 11C9.5 12.3807 10.6193 13.5 12 13.5Z" stroke="#0000FF" stroke-width="1.3" stroke-linecap="round" stroke-linejoin="round"/>
<path d="M17.5 11C18.6101 11 19.6415 11.3769 20.4974 12.0224C21.2229 12.5696 21.5 13.4951 21.5 14.4038V14.5" stroke="#0000FF" stroke-width="1.3" stroke-linecap="round" stroke-linejoin="round"/>
<path d="M17.5 8.5C18.6046 8.5 19.5 7.60457 19.5 6.5C19.5 5.39543 18.6046 4.5 17.5 4.5C16.3954 4.5 15.5 5.39543 15.5 6.5C15.5 7.60457 16.3954 8.5 17.5 8.5Z" stroke="#0000FF" stroke-width="1.3" stroke-linecap="round" stroke-linejoin="round"/>
<path d="M6.5 11C5.38987 11 4.35846 11.3769 3.50256 12.0224C2.77706 12.5696 2.5 13.4951 2.5 14.4038V14.5" stroke="#0000FF" stroke-width="1.3" stroke-linecap="round" stroke-linejoin="round"/>
<path d="M6.5 8.5C7.60457 8.5 8.5 7.60457 8.5 6.5C8.5 5.39543 7.60457 4.5 6.5 4.5C5.39543 4.5 4.5 5.39543 4.5 6.5C4.5 7.60457 5.39543 8.5 6.5 8.5Z" stroke="#0000FF" stroke-width="1.3" stroke-linecap="round" stroke-linejoin="round"/>
</svg>
